<?xml version="1.0" encoding="UTF-8"?>
<svg version="1.1" xmlns="http://www.w3.org/2000/svg" width="512" height="512">
<path d="M0 0 C1.17949219 -0.03738281 2.35898438 -0.07476563 3.57421875 -0.11328125 C11.54136866 0.79415798 16.74909972 5.16235173 22.3125 10.625 C23.53570689 11.79375571 24.75965919 12.96173181 25.984375 14.12890625 C26.56123047 14.68336426 27.13808594 15.23782227 27.73242188 15.80908203 C29.63026781 17.61485076 31.58017585 19.35012649 33.5625 21.0625 C36.4675841 23.57199818 39.33532977 26.11789772 42.1875 28.6875 C43.02410156 29.43902344 43.86070312 30.19054687 44.72265625 30.96484375 C46.49233761 32.56903454 48.24967365 34.18692258 49.99609375 35.81640625 C50.86363281 36.61949219 51.73117188 37.42257813 52.625 38.25 C53.79482422 39.34634766 53.79482422 39.34634766 54.98828125 40.46484375 C57.35957284 42.34992093 59.45689036 43.34715232 62.3125 44.3125 C62.9415625 43.74402344 63.570625 43.17554688 64.21875 42.58984375 C68.20687373 38.9921237 72.19576956 35.39821896 76.25 31.875 C79.47809512 29.06427475 82.64988443 26.196701 85.8125 23.3125 C90.26629803 19.25636251 94.73018287 15.22319737 99.3125 11.3125 C100.22386719 10.53390625 101.13523437 9.7553125 102.07421875 8.953125 C103.03972656 8.14359375 104.00523437 7.3340625 105 6.5 C105.89074219 5.75105469 106.78148437 5.00210937 107.69921875 4.23046875 C114.38494299 -0.67639314 121.27803875 -0.39131515 129.3125 0.3125 C136.68150033 2.14552345 141.95392168 8.27216791 147.3125 13.3125 C148.61886495 14.46532302 149.93096693 15.61169334 151.25 16.75 C154.47809512 19.56072525 157.64988443 22.428299 160.8125 25.3125 C164.61202858 28.77708391 168.43975718 32.20087295 172.3203125 35.57421875 C176.00882451 38.79262629 179.65799531 42.05559189 183.3125 45.3125 C188.13208501 41.89497608 192.43866117 38.31803144 196.5546875 34.08203125 C199.64490318 30.97121413 202.98443921 28.16355702 206.3125 25.3125 C207.3637288 24.38592418 208.41447451 23.45880011 209.46484375 22.53125 C210.60118271 21.54123057 211.73790246 20.55164805 212.875 19.5625 C213.40496582 19.09038086 213.93493164 18.61826172 214.48095703 18.13183594 C221.08863365 12.43787869 227.35757113 10.67914737 236.01953125 10.8984375 C242.38623552 11.69899581 247.8754988 14.38703876 252.25 19.125 C256.23521978 25.28397603 257.76348027 30.97277057 257.69281673 38.33079433 C257.69747665 39.10047363 257.70213657 39.87015292 257.7069377 40.66315582 C257.71885626 43.23349373 257.70950457 45.80329996 257.70018005 48.37364197 C257.70435434 50.2385452 257.70983238 52.1034459 257.71649987 53.96834189 C257.73096061 59.0864536 257.72670775 64.20440436 257.71933305 69.32252491 C257.71460529 74.84477749 257.72710775 80.36699506 257.73735046 85.88923645 C257.75455121 96.70503114 257.75537585 107.52076776 257.75013756 118.33657258 C257.74609716 127.12683383 257.74753787 135.91707791 257.75288582 144.70733833 C257.75363424 145.95811919 257.75438266 147.20890004 257.75515376 148.49758335 C257.75668523 151.0384835 257.75822358 153.57938365 257.75976873 156.12028379 C257.76959816 173.18141975 257.77376051 190.24254991 257.76614285 207.3036871 C257.76584567 207.97068484 257.7655485 208.63768258 257.76524232 209.32489238 C257.76279343 214.74123588 257.76018182 220.15757931 257.75755819 225.57392274 C257.74745536 246.7018999 257.75581249 267.82979759 257.77905273 288.95776367 C257.80512779 312.70124018 257.81792316 336.44467536 257.81086498 360.18817049 C257.80736993 372.75777024 257.80962378 385.32730473 257.82711601 397.89689445 C257.84182127 408.59658039 257.84249527 419.2961551 257.8250451 429.99583881 C257.81651916 435.45517241 257.81442459 440.91430717 257.82969666 446.37363052 C257.84350593 451.37190504 257.83882891 456.36980965 257.81945742 461.36806256 C257.81568558 463.17550752 257.81865338 464.98298185 257.82906907 466.79040074 C257.92153011 484.06431523 257.92153011 484.06431523 253.3125 491.3125 C252.77625 492.22 252.24 493.1275 251.6875 494.0625 C246.15007349 499.30848301 240.30317331 501.62733583 232.6875 501.875 C222.86173498 501.41531509 217.95300348 497.29290264 210.9375 490.7265625 C208.36993221 488.36531712 205.7240525 486.17765825 203 484 C196.4898773 478.73967163 190.40879993 473.040502 184.3125 467.3125 C179.1698532 470.92329456 174.68538787 474.81248094 170.3046875 479.3125 C167.79155857 481.83548434 165.13446696 484.14968276 162.4375 486.47265625 C160.07764508 488.51583946 157.75585398 490.59735899 155.4375 492.6875 C154.59703125 493.44289063 153.7565625 494.19828125 152.890625 494.9765625 C151.16147096 496.54328085 149.44277196 498.12161063 147.734375 499.7109375 C139.93116014 506.91574631 133.56510572 512.40028431 122.625 512.625 C121.44550781 512.66238281 120.26601563 512.69976563 119.05078125 512.73828125 C111.08363134 511.83084202 105.87590028 507.46264827 100.3125 502 C99.08929311 500.83124429 97.86534081 499.66326819 96.640625 498.49609375 C95.7753418 497.66440674 95.7753418 497.66440674 94.89257812 496.81591797 C92.99473219 495.01014924 91.04482415 493.27487351 89.0625 491.5625 C86.1574159 489.05300182 83.28967023 486.50710228 80.4375 483.9375 C79.18259766 482.81021484 79.18259766 482.81021484 77.90234375 481.66015625 C76.13266239 480.05596546 74.37532635 478.43807742 72.62890625 476.80859375 C71.32759766 475.60396484 71.32759766 475.60396484 70 474.375 C69.22011719 473.64410156 68.44023437 472.91320312 67.63671875 472.16015625 C65.26542716 470.27507907 63.16810964 469.27784768 60.3125 468.3125 C59.36890625 469.16521484 59.36890625 469.16521484 58.40625 470.03515625 C54.41812627 473.6328763 50.42923044 477.22678104 46.375 480.75 C43.14690488 483.56072525 39.97511557 486.428299 36.8125 489.3125 C32.35870197 493.36863749 27.89481713 497.40180263 23.3125 501.3125 C22.40113281 502.09109375 21.48976562 502.8696875 20.55078125 503.671875 C19.58527344 504.48140625 18.61976563 505.2909375 17.625 506.125 C16.73425781 506.87394531 15.84351563 507.62289063 14.92578125 508.39453125 C8.24005701 513.30139314 1.34696125 513.01631515 -6.6875 512.3125 C-14.05650033 510.47947655 -19.32892168 504.35283209 -24.6875 499.3125 C-25.99386495 498.15967698 -27.30596693 497.01330666 -28.625 495.875 C-31.85309512 493.06427475 -35.02488443 490.196701 -38.1875 487.3125 C-41.98702858 483.84791609 -45.81475718 480.42412705 -49.6953125 477.05078125 C-53.38382451 473.83237371 -57.03299531 470.56940811 -60.6875 467.3125 C-65.50708501 470.73002392 -69.81366117 474.30696856 -73.9296875 478.54296875 C-77.01990318 481.65378587 -80.35943921 484.46144298 -83.6875 487.3125 C-84.7387288 488.23907582 -85.78947451 489.16619989 -86.83984375 490.09375 C-87.97618271 491.08376943 -89.11290246 492.07335195 -90.25 493.0625 C-90.77996582 493.53461914 -91.30993164 494.00673828 -91.85595703 494.49316406 C-98.46208599 500.18578766 -104.73558565 501.95772522 -113.3984375 501.71875 C-120.47737835 500.84439151 -125.74601154 497.95094094 -130.1875 492.375 C-134.10760353 486.82531855 -134.98355951 481.21039554 -134.94476891 474.54030132 C-134.94827498 473.77292972 -134.95178105 473.00555812 -134.95539337 472.21493283 C-134.96470609 469.64050528 -134.9597844 467.06630401 -134.95492554 464.49186707 C-134.95866186 462.62869133 -134.9632633 460.76551716 -134.96865618 458.90234548 C-134.98090377 453.77974779 -134.98062364 448.65721533 -134.97826743 443.53460634 C-134.97785971 438.0109604 -134.9888941 432.4873355 -134.99838257 426.96369934 C-135.01500302 416.14095883 -135.02049258 405.3182401 -135.02160732 394.49548789 C-135.02255727 385.69946082 -135.02666489 376.90344095 -135.03300858 368.10741615 C-135.04775675 347.23346997 -135.06005801 326.35952768 -135.05901146 305.48557568 C-135.0589803 304.8180459 -135.05894914 304.15051613 -135.05891704 303.46275817 C-135.05875083 300.07945452 -135.05855275 296.69615087 -135.05834763 293.31284722 C-135.05830774 292.64091331 -135.05826785 291.96897939 -135.05822675 291.27668384 C-135.05814587 289.9178698 -135.05806228 288.55905575 -135.05797596 287.20024171 C-135.05675045 266.05916684 -135.0717639 244.91815612 -135.09912109 223.77709961 C-135.12984555 200.0241194 -135.14702804 176.27117511 -135.14519465 152.51817018 C-135.14453027 139.94182917 -135.15004368 127.36556051 -135.17155075 114.78923607 C-135.18974361 104.08218777 -135.19412542 93.37524463 -135.1805319 82.66818758 C-135.17399282 77.2048134 -135.17391914 71.74164107 -135.1912384 66.27828598 C-135.20693229 61.27623747 -135.20414306 56.27455147 -135.18667014 51.272512 C-135.18359214 49.46365867 -135.18726265 47.65477854 -135.19839029 45.84595682 C-135.29768991 28.55867479 -135.29768991 28.55867479 -130.6875 21.3125 C-129.883125 19.95125 -129.883125 19.95125 -129.0625 18.5625 C-123.52507349 13.31651699 -117.67817331 10.99766417 -110.0625 10.75 C-100.23673498 11.20968491 -95.32800348 15.33209736 -88.3125 21.8984375 C-85.74493221 24.25968288 -83.0990525 26.44734175 -80.375 28.625 C-73.8648773 33.88532837 -67.78379993 39.584498 -61.6875 45.3125 C-53.24317569 38.09963965 -44.92972661 30.75548039 -36.6875 23.3125 C-34.14748998 21.01879398 -31.60618686 18.72668868 -29.05859375 16.44140625 C-27.56600531 15.1012733 -26.0782912 13.75567177 -24.59765625 12.40234375 C-17.06686303 5.61717362 -10.42046318 0.21404195 0 0 Z M-0.6875 25.3125 C-1.6053125 26.16972656 -2.523125 27.02695312 -3.46875 27.91015625 C-14.99763013 38.65912304 -14.99763013 38.65912304 -20.7734375 43.6484375 C-23.05976814 45.63614536 -25.3116823 47.65967352 -27.5625 49.6875 C-28.40167969 50.44289063 -29.24085938 51.19828125 -30.10546875 51.9765625 C-31.84292715 53.54842351 -33.57461542 55.12668365 -35.30078125 56.7109375 C-44.17746129 64.81983186 -51.23912752 70.98622558 -63.82421875 70.6796875 C-73.43247643 69.44752349 -79.96833151 62.72121186 -86.6875 56.3125 C-88.0136239 55.13764499 -89.34652243 53.9703722 -90.6875 52.8125 C-94.62589521 49.39336582 -98.46264172 45.86761944 -102.29296875 42.328125 C-104.98366897 39.95505212 -104.98366897 39.95505212 -109.6875 37.3125 C-109.6875 181.8525 -109.6875 326.3925 -109.6875 475.3125 C-104.7048714 472.04165672 -104.7048714 472.04165672 -100.3203125 468.32421875 C-99.74877441 467.78611572 -99.17723633 467.2480127 -98.58837891 466.69360352 C-97.70931885 465.85526978 -97.70931885 465.85526978 -96.8125 465 C-95.57361132 463.83519822 -94.33403309 462.6711294 -93.09375 461.5078125 C-92.50464844 460.95383789 -91.91554688 460.39986328 -91.30859375 459.82910156 C-72.58480131 442.31220418 -72.58480131 442.31220418 -61.25 441.9375 C-49.53921493 442.39893039 -43.77780906 448.52955682 -35.6875 456.3125 C-34.343094 457.51103916 -32.99030994 458.70032882 -31.625 459.875 C-28.43505391 462.6405042 -25.30657011 465.46725772 -22.1875 468.3125 C-17.7361109 472.37093889 -13.23602595 476.36367828 -8.6875 480.3125 C-7.18702015 481.6244514 -5.68701186 482.93694233 -4.1875 484.25 C-3.5171875 484.83652344 -2.846875 485.42304688 -2.15625 486.02734375 C-1.6715625 486.45144531 -1.186875 486.87554687 -0.6875 487.3125 C3.9133663 484.85177301 7.38445479 481.63276703 11.125 478.0625 C12.37681794 476.8832794 13.62941573 475.70488607 14.8828125 474.52734375 C15.77661621 473.68598877 15.77661621 473.68598877 16.68847656 472.82763672 C19.18241723 470.50090855 21.7525401 468.26908779 24.3359375 466.04296875 C26.80407623 463.88212793 29.21054009 461.65812298 31.625 459.4375 C50.79760542 442.04406988 50.79760542 442.04406988 63.625 441.9140625 C70.69919747 442.9628534 75.71738349 445.94102935 80.9375 450.6875 C81.52869629 451.20916748 82.11989258 451.73083496 82.72900391 452.26831055 C88.304876 457.2191608 93.75442786 462.31193158 99.1953125 467.41015625 C102.19532861 470.21561064 105.25628672 472.93966439 108.37109375 475.6171875 C111.68014966 478.50678562 114.89037705 481.50708 118.11328125 484.4921875 C120.26711949 486.49809403 120.26711949 486.49809403 123.3125 487.3125 C124.68921875 486.02666016 124.68921875 486.02666016 126.09375 484.71484375 C137.62263013 473.96587696 137.62263013 473.96587696 143.3984375 468.9765625 C145.68476814 466.98885464 147.9366823 464.96532648 150.1875 462.9375 C151.02925781 462.18082031 151.87101562 461.42414063 152.73828125 460.64453125 C154.45392347 459.09029998 156.15972702 457.52513849 157.85546875 455.94921875 C166.84533416 447.65624213 173.83356822 441.79720352 186.37890625 441.98046875 C196.01774494 443.07141587 202.60081046 449.91092153 209.3125 456.3125 C210.6386239 457.48735501 211.97152243 458.6546278 213.3125 459.8125 C217.25089521 463.23163418 221.08764172 466.75738056 224.91796875 470.296875 C227.60866897 472.66994788 227.60866897 472.66994788 232.3125 475.3125 C232.3125 330.7725 232.3125 186.2325 232.3125 37.3125 C227.3298714 40.58334328 227.3298714 40.58334328 222.9453125 44.30078125 C222.08800537 45.10793579 222.08800537 45.10793579 221.21337891 45.93139648 C220.62733887 46.49028564 220.04129883 47.0491748 219.4375 47.625 C218.19861132 48.78980178 216.95903309 49.9538706 215.71875 51.1171875 C215.12964844 51.67116211 214.54054688 52.22513672 213.93359375 52.79589844 C195.26449043 70.26163185 195.26449043 70.26163185 183.9375 70.75 C172.50134344 70.32932394 166.2698541 63.93780356 158.3125 56.3125 C156.98763874 55.13622132 155.65514527 53.96843796 154.3125 52.8125 C151.10350756 50.02435902 147.95333556 47.17721815 144.8125 44.3125 C140.3611109 40.25406111 135.86102595 36.26132172 131.3125 32.3125 C129.81202015 31.0005486 128.31201186 29.68805767 126.8125 28.375 C125.80703125 27.49521484 125.80703125 27.49521484 124.78125 26.59765625 C124.2965625 26.17355469 123.811875 25.74945312 123.3125 25.3125 C118.7116337 27.77322699 115.24054521 30.99223297 111.5 34.5625 C110.24818206 35.7417206 108.99558427 36.92011393 107.7421875 38.09765625 C107.14631836 38.65855957 106.55044922 39.21946289 105.93652344 39.79736328 C103.44258277 42.12409145 100.8724599 44.35591221 98.2890625 46.58203125 C95.82092377 48.74287207 93.41445991 50.96687702 91 53.1875 C71.82739458 70.58093012 71.82739458 70.58093012 59 70.7109375 C51.92580253 69.6621466 46.90761651 66.68397065 41.6875 61.9375 C41.09630371 61.41583252 40.50510742 60.89416504 39.89599609 60.35668945 C34.320124 55.4058392 28.87057214 50.31306842 23.4296875 45.21484375 C20.42967139 42.40938936 17.36871328 39.68533561 14.25390625 37.0078125 C10.94485034 34.11821438 7.73462295 31.11792 4.51171875 28.1328125 C2.35788051 26.12690597 2.35788051 26.12690597 -0.6875 25.3125 Z " fill="gray" transform="translate(194.6875,-0.3125)"/>
<path d="M0 0 C0.93194309 -0.00311998 1.86388618 -0.00623996 2.82406998 -0.00945449 C5.94234824 -0.01742258 9.06043127 -0.01111541 12.17871094 -0.00482178 C14.41613885 -0.00753216 16.65356588 -0.01109336 18.89099121 -0.01544189 C24.96524746 -0.02456247 31.0394358 -0.02102297 37.11369324 -0.01468372 C43.46902653 -0.00962205 49.82435398 -0.01431565 56.1796875 -0.01745605 C67.53628346 -0.02132834 78.89284493 -0.01511097 90.24943399 -0.00493738 C100.5422812 0.00399787 110.83508329 0.00244575 121.12792969 -0.0067749 C133.08631451 -0.01748261 145.04467192 -0.02145946 157.0030632 -0.01555037 C163.33119541 -0.01243148 169.65929655 -0.01201916 175.98742676 -0.01862335 C181.93653967 -0.02439825 187.88556733 -0.02039718 193.83467102 -0.00883484 C196.01878213 -0.00618904 198.2029004 -0.00695197 200.38700867 -0.01136017 C203.36682678 -0.01682011 206.34637122 -0.00997585 209.32617188 0 C210.62452154 -0.00669217 210.62452154 -0.00669217 211.94910049 -0.01351953 C217.92394102 0.02531324 222.52625618 0.68695879 227.47558594 4.31646729 C230.38514306 8.22358685 231.09317506 11.41546469 230.66308594 16.25396729 C229.49663753 19.68202955 227.93244746 22.46208303 224.77879995 24.42946881 C222.51888366 25.31016323 220.91542825 25.50550417 218.49916172 25.50844288 C217.67219966 25.51427507 216.84523761 25.52010727 215.9932161 25.52611619 C215.09001426 25.52233687 214.18681243 25.51855754 213.25624084 25.5146637 C212.29263262 25.51848924 211.32902439 25.52231479 210.33621591 25.52625626 C207.09884473 25.53659671 203.86165056 25.53259211 200.62426758 25.52862549 C198.3066949 25.53297137 195.98912366 25.5381541 193.67155457 25.54411316 C187.36998765 25.55752742 181.06848062 25.55807915 174.76690221 25.55554986 C169.51069861 25.55448184 164.25450721 25.55935917 158.99830621 25.56415528 C145.89152498 25.57589405 132.78477793 25.57502057 119.67799448 25.56859847 C108.29403936 25.56342884 96.91016979 25.57468545 85.52623159 25.59369669 C73.83835321 25.61306595 62.15051898 25.62104113 50.46262449 25.61757344 C43.90029028 25.61575764 37.33803444 25.61842638 30.77571297 25.63228798 C24.60581434 25.6448325 18.43608737 25.64295418 12.26619148 25.62987709 C9.99941959 25.62750443 7.73263573 25.63027054 5.46587753 25.63850021 C2.37602212 25.64891088 -0.71325124 25.64091252 -3.80308533 25.62818909 C-5.15454199 25.63925051 -5.15454199 25.63925051 -6.53330082 25.6505354 C-11.28693741 25.60924016 -14.49510229 25.3723005 -18.33691406 22.25396729 C-21.42212668 17.93466962 -21.77105581 14.46437266 -20.97363281 9.37115479 C-19.94038575 5.93544982 -18.18621125 4.34345189 -15.33691406 2.25396729 C-10.17301956 0.03672593 -5.51520658 -0.02842738 0 0 Z " fill="gray" transform="translate(151.3369140625,314.74603271484375)"/>
<path d="M0 0 C0.91972225 0.00018436 1.83944451 0.00036873 2.78703713 0.00055867 C3.75624919 -0.00311801 4.72546125 -0.0067947 5.72404337 -0.0105828 C8.99832207 -0.02166786 12.27256909 -0.02547162 15.54686379 -0.02927226 C17.88369752 -0.03553327 20.22053023 -0.04217974 22.55736184 -0.04918498 C28.92520039 -0.06662854 35.29303141 -0.07715584 41.66088796 -0.08539051 C45.63543669 -0.09053348 49.60998305 -0.09660952 53.58453012 -0.10290164 C64.58372947 -0.11991732 75.5829278 -0.13441165 86.5821383 -0.14165038 C89.43821869 -0.14356036 92.29429906 -0.14548068 95.15037942 -0.14743632 C95.86026868 -0.14792006 96.57015794 -0.1484038 97.301559 -0.1489022 C108.80211797 -0.15720302 120.30257294 -0.18253924 131.80308649 -0.215017 C143.6038639 -0.2480716 155.40458843 -0.26609775 167.20541239 -0.26929462 C173.8337711 -0.27146138 180.46199549 -0.28067524 187.0903132 -0.30575579 C193.32503566 -0.32896495 199.55948489 -0.33329851 205.79423928 -0.32299441 C208.08520564 -0.3224972 210.37618511 -0.32887194 212.66711068 -0.34255046 C215.79009949 -0.36015653 218.91209576 -0.35321846 222.03508401 -0.3400175 C223.40128306 -0.35647137 223.40128306 -0.35647137 224.79508209 -0.37325764 C228.93937922 -0.33084073 231.0981825 -0.20820388 234.68096185 2.04149514 C237.4913063 5.0248861 238.60322796 7.15195664 238.73143411 11.29226094 C238.49050625 15.69467005 238.06158804 17.67185748 235.16502786 21.14772969 C234.34002786 21.80772969 233.51502786 22.46772969 232.66502786 23.14772969 C232.33502786 23.47772969 232.00502786 23.80772969 231.66502786 24.14772969 C228.61713893 24.25465319 225.59163194 24.29551182 222.54301858 24.29490072 C221.57380652 24.2985774 220.60459446 24.30225409 219.60601234 24.30604219 C216.33173364 24.31712725 213.05748662 24.32093101 209.78319192 24.32473165 C207.4463582 24.33099266 205.10952548 24.33763913 202.77269387 24.34464437 C196.40485532 24.36208793 190.0370243 24.37261523 183.66916776 24.3808499 C179.69461903 24.38599287 175.72007266 24.39206891 171.7455256 24.39836103 C160.74632625 24.41537671 149.74712791 24.42987104 138.74791741 24.43710977 C135.89183703 24.43901975 133.03575665 24.44094007 130.17967629 24.44289571 C129.46978703 24.44337945 128.75989777 24.44386319 128.02849671 24.44436159 C116.52793774 24.45266241 105.02748277 24.47799863 93.52696922 24.51047639 C81.72619182 24.54353099 69.92546728 24.56155714 58.12464333 24.56475401 C51.49628461 24.56692077 44.86806022 24.57613463 38.23974252 24.60121518 C32.00502006 24.62442434 25.77057082 24.6287579 19.53581643 24.6184538 C17.24485008 24.61795659 14.9538706 24.62433133 12.66294503 24.63800985 C9.53995622 24.65561592 6.41795995 24.64867785 3.2949717 24.63547689 C2.38417234 24.64644613 1.47337297 24.65741538 0.53497362 24.66871703 C-3.60932351 24.62630012 -5.76812678 24.50366327 -9.35090613 22.25396425 C-12.16125058 19.27057329 -13.27317225 17.14350275 -13.40137839 13.00319844 C-13.16045053 8.60078934 -12.73153233 6.62360191 -9.83497214 3.14772969 C-9.00997214 2.48772969 -8.18497214 1.82772969 -7.33497214 1.14772969 C-5.41655499 -0.77068746 -2.5542046 0.01375224 0 0 Z " fill="gray" transform="translate(143.33497214317322,243.8522703051567)"/>
<path d="M0 0 C1.08369873 -0.00852997 2.16739746 -0.01705994 3.28393555 -0.02584839 C5.05994896 -0.02448883 5.05994896 -0.02448883 6.87184143 -0.02310181 C8.7479863 -0.03317764 8.7479863 -0.03317764 10.66203308 -0.04345703 C14.08978284 -0.05920202 17.51729031 -0.06581212 20.94505954 -0.0670886 C23.08724489 -0.06851088 25.22940489 -0.07278187 27.37158394 -0.07808304 C34.84678381 -0.09658038 42.3219124 -0.10475388 49.7971344 -0.10317993 C56.76252025 -0.10197806 63.72759646 -0.1230898 70.69290394 -0.15466726 C76.67604289 -0.18082439 82.65908066 -0.1915475 88.64227635 -0.19026911 C92.21450348 -0.18975938 95.78645529 -0.19544865 99.35862541 -0.21662521 C103.34232042 -0.23959736 107.32559095 -0.23049006 111.30934143 -0.21841431 C112.49132614 -0.22965332 113.67331085 -0.24089233 114.89111328 -0.25247192 C122.8946607 -0.19067678 122.8946607 -0.19067678 126.84487915 2.18841553 C130.26056876 6.11087214 131.10909706 8.89309621 130.97950745 14.23617554 C130.44531274 17.58293757 128.78652644 19.70994025 126.6552887 22.26742554 C122.37190614 25.12301391 118.60081645 25.39141557 113.53872681 25.40113831 C112.53082596 25.40540329 111.52292511 25.40966827 110.48448181 25.4140625 C108.84245285 25.41338272 108.84245285 25.41338272 107.16725159 25.41268921 C106.00573074 25.41604782 104.8442099 25.41940643 103.64749146 25.42286682 C99.80763174 25.43236641 95.96781568 25.43431935 92.12794495 25.43539429 C90.13360106 25.43779514 88.13925717 25.44019772 86.14491361 25.4428547 C79.87598919 25.45098831 73.60707912 25.4534399 67.33815002 25.45272827 C60.87897885 25.45212739 54.41989115 25.46268377 47.9607411 25.47847193 C42.40729762 25.49156078 36.85388139 25.49691162 31.30042261 25.49627286 C27.98703199 25.49601832 24.67373226 25.49976935 21.36035347 25.50945091 C17.66440507 25.51924032 13.96867215 25.51637688 10.27272034 25.51034546 C8.63372772 25.51877472 8.63372772 25.51877472 6.96162415 25.52737427 C0.38218976 25.50006963 -4.68959866 25.21450814 -10.1572113 21.20492554 C-13.06676842 17.29780598 -13.77480042 14.10592814 -13.3447113 9.26742554 C-12.1882209 5.86862873 -10.62269547 3.09661578 -7.53422451 1.09273338 C-4.89851448 0.09923759 -2.81707272 0.01003279 0 0 Z " fill="gray" transform="translate(143.34471130371094,171.73257446289063)"/>
</svg>
