<?xml version="1.0" encoding="UTF-8"?>
<svg version="1.1" xmlns="http://www.w3.org/2000/svg" width="512" height="512">
<path d="M0 0 C0.79847819 -0.00583219 1.59695638 -0.01166439 2.41963089 -0.01767331 C3.29102301 -0.01389399 4.16241514 -0.01011467 5.06021309 -0.00622082 C5.99044733 -0.01004636 6.92068157 -0.01387191 7.87910473 -0.01781338 C11.00358767 -0.02815175 14.12788713 -0.02414961 17.25238228 -0.02018261 C19.48951577 -0.02452864 21.72664777 -0.02971142 23.96377754 -0.03567028 C30.0464109 -0.04908376 36.12898221 -0.0496363 42.21162748 -0.04710698 C47.28630803 -0.04603879 52.36097595 -0.05091678 57.43565381 -0.0557124 C70.09135023 -0.06745112 82.74700862 -0.06657788 95.40270449 -0.06015559 C106.39152718 -0.05498732 117.3802612 -0.06623897 128.36906634 -0.08525381 C139.6535325 -0.10463047 150.93795784 -0.112597 162.22244465 -0.10913056 C168.55733402 -0.10731564 174.8921422 -0.10997466 181.22701836 -0.1238451 C187.18434119 -0.13640021 193.14148634 -0.13450119 199.09880638 -0.12143421 C201.28614295 -0.11906378 203.47349194 -0.12181976 205.66081429 -0.13005733 C208.64522883 -0.14048689 211.62904299 -0.13245434 214.61343575 -0.11974621 C215.48036643 -0.12712049 216.34729711 -0.13449478 217.24049842 -0.14209253 C225.33273606 -0.06953123 230.06591669 2.95125141 235.83880806 8.50447559 C236.89935153 9.50126611 237.9605489 10.49736136 239.02240181 11.49275684 C239.5301313 11.9718047 240.03786079 12.45085255 240.56097603 12.944417 C242.30360404 14.57179986 244.09351613 16.13750483 245.90130806 17.69197559 C250.08490663 21.31659649 254.12815416 25.08832627 258.18622017 28.8518877 C261.07744934 31.52848597 263.9827021 34.17758739 266.96380806 36.75447559 C271.12946967 40.35530173 275.14980854 44.10838533 279.18646431 47.85213184 C282.07762423 50.52863488 284.98278938 53.17766283 287.96380806 55.75447559 C292.12946967 59.35530173 296.14980854 63.10838533 300.18646431 66.85213184 C303.07762423 69.52863488 305.98278938 72.17766283 308.96380806 74.75447559 C313.12946967 78.35530173 317.14980854 82.10838533 321.18646431 85.85213184 C324.07762423 88.52863488 326.98278938 91.17766283 329.96380806 93.75447559 C334.12946967 97.35530173 338.14980854 101.10838533 342.18646431 104.85213184 C345.07762423 107.52863488 347.98278938 110.17766283 350.96380806 112.75447559 C355.12946967 116.35530173 359.14980854 120.10838533 363.18646431 123.85213184 C366.07762423 126.52863488 368.98278938 129.17766283 371.96380806 131.75447559 C375.59825441 134.90743547 379.16359848 138.13233268 382.71380806 141.37947559 C383.269394 141.8828545 383.82497993 142.38623341 384.39740181 142.90486622 C389.55243266 147.64175292 394.45369811 152.32117965 395.20990372 159.63447762 C395.20806013 160.46316951 395.20621655 161.2918614 395.20431709 162.14566517 C395.20844109 163.58217426 395.20844109 163.58217426 395.21264839 165.04770374 C395.20545784 166.08636082 395.19826729 167.12501789 395.19085884 168.19514942 C395.19115089 169.29803303 395.19144295 170.40091663 395.19174385 171.53722095 C395.19035171 175.17872991 395.17479566 178.82003368 395.15912056 182.46150684 C395.15539003 184.98784746 395.15254324 187.51418953 395.15054512 190.04053211 C395.14369186 196.00799714 395.12793259 201.97537423 395.10784614 207.94280404 C395.08546987 214.73842724 395.07448937 221.534054 395.06445527 228.32970488 C395.04356583 242.30466912 395.00840066 256.27956833 394.96380806 270.25447559 C395.84131973 270.24448284 395.84131973 270.24448284 396.73655891 270.23428822 C402.88590118 270.16735077 409.03513812 270.12243554 415.18475533 270.08968067 C417.47255859 270.07469612 419.76033363 270.05430147 422.04803658 270.02815723 C443.67467796 269.78738912 461.30961868 271.06742733 477.74505806 286.80916309 C489.62091645 299.89769717 492.80164785 314.82552222 492.14300728 331.89119434 C491.53030534 339.97151413 488.35075656 346.63599595 484.40130806 353.56697559 C482.26095 357.34082555 482.26095 357.34082555 482.55365181 361.43025684 C483.81387916 363.41606631 483.81387916 363.41606631 485.37787056 365.25056934 C487.19119091 367.54178446 488.1499201 369.72626159 489.21380806 372.44197559 C489.52833931 373.23990528 489.84287056 374.03783497 490.16693306 374.85994434 C494.2518463 387.13470816 493.21735067 402.57472462 487.96380806 414.25447559 C486.76834763 416.15845244 485.56023663 418.05455256 484.33880806 419.94197559 C482.70400214 422.54564641 482.70400214 422.54564641 481.96380806 425.25447559 C482.92498235 428.15186155 484.3604376 430.15926283 486.15130806 432.62556934 C493.03668556 442.61233456 493.15848118 455.58462144 491.96380806 467.25447559 C491.10484185 471.84849712 489.79931973 475.9620251 487.96380806 480.25447559 C487.56290962 481.19549122 487.16201118 482.13650684 486.74896431 483.10603809 C480.89848796 495.14614884 470.58583795 504.29114719 458.27590686 509.36162609 C448.52917953 512.71672327 439.46701571 512.82009855 429.29466438 512.76913929 C427.42473088 512.77447229 425.55480168 512.7815423 423.68488055 512.79018635 C418.5760925 512.80873944 413.46759579 512.80253412 408.358796 512.79203331 C402.8380038 512.78502077 397.31727021 512.80105449 391.79649544 512.81403065 C380.9944075 512.83563871 370.19242503 512.8355524 359.39032259 512.8274051 C350.61208638 512.82109958 341.83388088 512.8222472 333.05564499 512.82867718 C331.80525286 512.82957883 330.55486073 512.83048049 329.26657793 512.83140947 C326.72631972 512.83326069 324.18606151 512.83512325 321.64580331 512.83699702 C304.60058288 512.84886048 287.55537291 512.85328417 270.51015186 512.842062 C269.84435898 512.84162403 269.1785661 512.84118606 268.49259767 512.84073481 C263.08644712 512.83712826 257.68029672 512.83329336 252.27414633 512.82944388 C231.17219852 512.81458607 210.07038007 512.82339585 188.96844673 512.85139942 C165.24251724 512.88282525 141.51665404 512.89773105 117.7906974 512.88759941 C115.26142904 512.88657686 112.73216068 512.88558225 110.2028923 512.8846159 C108.958475 512.88413951 107.7140577 512.88366312 106.43193078 512.88317229 C97.6615484 512.88100727 88.89122625 512.89081653 80.12085724 512.90538692 C69.43697781 512.92288913 58.75327433 512.92282257 48.06940188 512.90003527 C42.61822036 512.88887615 37.1673491 512.88576889 31.7161808 512.90433598 C26.72671744 512.92111212 21.73783568 512.9148284 16.7484102 512.89011919 C14.94315278 512.88522629 13.1378487 512.88877767 11.33263024 512.90160663 C-4.95951424 513.00903824 -4.95951424 513.00903824 -10.63334244 508.68014473 C-16.46607611 502.75253212 -18.18633699 497.57087022 -18.17041302 489.38010597 C-18.17276525 488.5652451 -18.17511748 487.75038422 -18.17754099 486.91083059 C-18.18424344 484.15686089 -18.18377239 481.40293825 -18.18336296 478.64896107 C-18.18666081 476.66391893 -18.19038621 474.67887747 -18.19450444 472.69383687 C-18.20454152 467.22050024 -18.20824397 461.74717458 -18.21089375 456.27383006 C-18.21479173 450.37796442 -18.22437038 444.48210752 -18.23310661 438.58624744 C-18.25194994 425.0124637 -18.26212904 411.43867842 -18.27056729 397.86488501 C-18.27477274 391.15848888 -18.27999486 384.45209364 -18.28525182 377.74569826 C-18.30314255 354.79299771 -18.31813902 331.8402969 -18.32557201 308.88759041 C-18.32604677 307.44640782 -18.32652266 306.00522523 -18.32699968 304.56404264 C-18.32723605 303.84933946 -18.32747243 303.13463627 -18.32771597 302.39827542 C-18.32891718 298.77718133 -18.33013262 295.15608725 -18.33135796 291.53499317 C-18.33159811 290.81637372 -18.33183826 290.09775428 -18.33208568 289.35735848 C-18.33997947 266.05542935 -18.36341267 242.75355111 -18.3959139 219.4516442 C-18.43020608 194.82077994 -18.44992258 170.18994546 -18.45321625 145.55905694 C-18.4536338 142.85550637 -18.45411336 140.15195582 -18.45463943 137.44840527 C-18.45482422 136.4498558 -18.45482422 136.4498558 -18.45501274 135.43113361 C-18.45720104 125.37841665 -18.47050423 115.32575288 -18.48967743 105.27305508 C-18.51134739 93.83871435 -18.51945309 82.40446658 -18.50971065 70.97010765 C-18.50515527 65.13423015 -18.5071241 59.29854459 -18.52647209 53.46269321 C-18.54402799 48.12134703 -18.54316766 42.78033388 -18.5275748 37.43898454 C-18.5251872 35.50556244 -18.52958161 33.57211775 -18.54140345 31.63873032 C-18.55647456 29.0114316 -18.54688332 26.3853202 -18.53117657 23.75805092 C-18.54139877 23.00663007 -18.55162098 22.25520922 -18.56215295 21.48101804 C-18.48374526 15.47567392 -16.78237948 10.16273722 -12.58890672 5.72177472 C-8.69674589 2.35705885 -5.19451408 0.00654585 0 0 Z M24.96380806 42.25447559 C24.96380806 183.49447559 24.96380806 324.73447559 24.96380806 470.25447559 C101.19380806 470.25447559 177.42380806 470.25447559 255.96380806 470.25447559 C255.96380806 463.32447559 255.96380806 456.39447559 255.96380806 449.25447559 C257.62253193 441.47123282 259.3278869 436.09788377 263.58880806 429.50447559 C265.22084665 426.9265741 265.22084665 426.9265741 265.96380806 424.25447559 C264.99784256 421.38908756 263.55587571 419.39683557 261.77630806 416.95760059 C254.64013172 406.31485484 254.71080174 392.16014038 256.43646431 379.89510059 C257.8226554 373.48707952 260.34389956 368.20965445 263.75677681 362.62947559 C265.26585403 360.10417905 265.26585403 360.10417905 264.96380806 356.25447559 C263.62237939 353.34206896 262.15922799 350.55256424 260.62787056 347.73885059 C256.83796998 340.53803949 255.57117558 333.66909857 255.58880806 325.56697559 C255.59041939 324.78532032 255.59203072 324.00366505 255.59369087 323.19832325 C255.74238685 316.0769522 257.26670143 309.85676785 259.96380806 303.25447559 C260.25255806 302.52099903 260.54130806 301.78752247 260.83880806 301.03181934 C266.66705028 287.94429328 277.2924657 280.15748716 289.93255806 274.29744434 C298.05365124 271.50320223 306.12711259 270.93667725 314.65912056 270.84041309 C315.61230171 270.82276905 316.56548286 270.80512501 317.54754829 270.7869463 C321.06113939 270.72453843 324.57499641 270.67789923 328.08880806 270.62947559 C339.90693306 270.44385059 339.90693306 270.44385059 351.96380806 270.25447559 C351.96380806 246.16447559 351.96380806 222.07447559 351.96380806 197.25447559 C342.02255806 197.22869434 332.08130806 197.20291309 321.83880806 197.17635059 C315.54061127 197.15118404 309.24244506 197.1250155 302.94427681 197.09431934 C292.94769694 197.04578421 282.95121876 197.00133865 272.95453072 196.9834795 C265.67361157 196.97045325 258.39289937 196.94346388 251.11209679 196.89986253 C247.25863081 196.87726941 243.40541987 196.86156361 239.55188179 196.86259174 C235.92050821 196.86333965 232.28969792 196.84533758 228.65847015 196.81330776 C226.69911672 196.80080377 224.73966859 196.80786268 222.7802906 196.81561756 C215.23486543 196.72669565 209.21730755 196.22439057 203.45128059 190.84278965 C199.17846236 186.05771989 197.71956643 181.69189402 197.68533516 175.37622547 C197.66860787 173.61521771 197.66860787 173.61521771 197.65154266 171.81863403 C197.64828444 169.89231628 197.64828444 169.89231628 197.6449604 167.92708302 C197.63554563 166.5347574 197.62526592 165.1424374 197.61419296 163.75012398 C197.58696721 160.0272842 197.57155365 156.30448385 197.55861092 152.58157063 C197.54466179 149.08597061 197.52002778 145.59047746 197.49627876 142.0949297 C197.43306987 131.87733901 197.38698147 121.65964823 197.33880806 111.44197559 C197.21505806 88.61010059 197.09130806 65.77822559 196.96380806 42.25447559 C140.20380806 42.25447559 83.44380806 42.25447559 24.96380806 42.25447559 Z M299.65130806 318.50447559 C297.46999622 322.059206 297.45001783 324.14415379 297.96380806 328.25447559 C299.6341985 331.92933457 301.5126197 334.16284629 304.96380806 336.25447559 C308.11345068 337.25310446 311.00137882 337.38447798 314.29506111 337.39491749 C315.37586952 337.40062763 316.45667793 337.40633778 317.57023811 337.41222095 C318.75110497 337.41333881 319.93197182 337.41445667 321.14862251 337.41560841 C323.0199485 337.42305576 323.0199485 337.42305576 324.92907906 337.43065357 C328.34864028 337.4427519 331.76814043 337.45021762 335.18771577 337.45466423 C337.3258886 337.45759895 339.46405611 337.4617045 341.60222626 337.4661684 C348.29724995 337.47983668 354.99226144 337.48950665 361.68729812 337.49337029 C369.40618427 337.49784975 377.12489322 337.51539511 384.8437255 337.54437089 C390.81669357 337.56601178 396.78961188 337.57607585 402.76261872 337.57741141 C406.32704341 337.57845771 409.89130138 337.58432794 413.45568466 337.60223103 C417.4341175 337.62182573 421.41233013 337.61741312 425.39081001 337.61092091 C426.56560417 337.62013569 427.74039833 337.62935047 428.95079231 337.63884449 C436.3345696 337.60109309 441.71312311 337.17175696 447.40130806 332.06697559 C449.44422512 328.38972488 449.99662517 325.30158858 448.96380806 321.25447559 C446.59524777 317.38607462 444.3054148 314.70167784 439.96380806 313.25447559 C438.17370405 313.15774797 436.38020283 313.11952268 434.5874958 313.1140337 C432.91352478 313.10546848 432.91352478 313.10546848 431.20573616 313.09673023 C429.98072899 313.09561237 428.75572182 313.09449451 427.49359322 313.09334278 C426.20396172 313.08837788 424.91433022 313.08341297 423.58561897 313.07829762 C420.04631809 313.06518159 416.50703617 313.05873034 412.96771479 313.05428696 C410.75636127 313.05135522 408.54501294 313.04725024 406.33366203 313.04278278 C399.41438592 313.02911057 392.49512165 313.0194423 385.57583296 313.01558089 C377.589207 313.01109928 369.6027521 312.99354555 361.61617815 312.9645803 C355.44198939 312.94296544 349.26784877 312.93287674 343.09362257 312.93153977 C339.40628824 312.93049169 335.71911478 312.92458323 332.0318203 312.90672016 C327.91871184 312.88718154 323.80596167 312.89152763 319.69281197 312.89803028 C318.47185326 312.8888155 317.25089455 312.87960072 315.99293709 312.8701067 C314.87131676 312.87567585 313.74969643 312.881245 312.5940876 312.88698292 C311.62180529 312.88551636 310.64952297 312.8840498 309.64777756 312.8825388 C305.33772335 313.47981375 302.71671798 315.52191459 299.65130806 318.50447559 Z M299.96380806 384.25447559 C297.51342577 387.92641345 297.77038393 390.82033766 298.35052681 395.06306934 C299.30604884 398.47738692 301.19946289 400.14830784 303.96380806 402.25447559 C307.04216252 403.28059375 309.1527106 403.38511631 312.37808418 403.39491749 C313.50247902 403.40062763 314.62687386 403.40633778 315.78534126 403.41222095 C317.01969917 403.41333881 318.25405708 403.41445667 319.52581978 403.41560841 C320.82520485 403.42057331 322.12458992 403.42553822 323.4633503 403.43065357 C327.02950983 403.44376994 330.59565054 403.45022092 334.16183043 403.45466423 C336.38993489 403.45759591 338.61803422 403.46170088 340.84613609 403.4661684 C347.81773793 403.47984071 354.78932802 403.48950893 361.76094234 403.49337029 C369.80812829 403.49785194 377.85514446 403.51540577 385.90227878 403.54437089 C392.12317626 403.56598532 398.34402596 403.57607443 404.5649606 403.57741141 C408.2802401 403.57845953 411.99535994 403.58436864 415.7105999 403.60223103 C419.85484059 403.6217687 423.99872566 403.61742372 428.14300728 403.61092091 C429.37331673 403.62013569 430.60362617 403.62935047 431.87121773 403.63884449 C433.00125221 403.63327534 434.1312867 403.62770618 435.29556465 403.62196827 C436.27522131 403.62343483 437.25487797 403.62490139 438.26422119 403.62641239 C442.49332307 403.04374597 445.12370969 401.29735633 447.77630806 398.00447559 C449.31406464 394.4433551 449.43671474 392.10528714 448.96380806 388.25447559 C446.93714568 384.55057538 445.4833629 382.60084549 441.96380806 380.25447559 C439.3841425 379.94674481 439.3841425 379.94674481 436.43564034 379.98705006 C435.28600304 379.97852009 434.13636574 379.96999012 432.95189095 379.96120167 C431.68948082 379.96210804 430.42707069 379.96301441 429.12640572 379.96394825 C427.78433546 379.9579643 426.44226865 379.95115906 425.10020638 379.94359303 C421.45345202 379.92591155 417.80679149 379.92123673 414.15999842 379.91996145 C411.11578198 379.91806278 408.07158742 379.91070557 405.02737939 379.90361726 C397.84471935 379.88732734 390.66210945 379.88244884 383.47943306 379.88387012 C376.07043866 379.88507156 368.66173557 379.86397096 361.25281489 379.8323828 C354.89178078 379.8062289 348.53084185 379.79550246 342.16975439 379.79678094 C338.37060013 379.79729087 334.57170468 379.79159129 330.77260399 379.77042484 C327.19872796 379.75105723 323.62535798 379.75090731 320.05146408 379.76545811 C318.11654524 379.76854552 316.18162644 379.75185913 314.2467823 379.73457813 C313.09150536 379.74296711 311.93622841 379.75135609 310.74594307 379.75999928 C309.74416338 379.75890974 308.74238369 379.75782021 307.71024704 379.75669765 C304.20608284 380.39180939 302.52901983 381.83769264 299.96380806 384.25447559 Z M299.08880806 451.50447559 C297.63362929 455.06157925 297.49492124 457.43639718 297.96380806 461.25447559 C299.99047044 464.95837581 301.44425322 466.9081057 304.96380806 469.25447559 C308.45708047 470.17051972 311.73800188 470.38164838 315.33938789 470.38818836 C316.93742004 470.39458584 316.93742004 470.39458584 318.56773567 470.40111256 C319.72630577 470.40065937 320.88487587 470.40020618 322.07855415 470.39973927 C323.3067437 470.40309788 324.53493324 470.40645649 325.80034065 470.40991688 C329.16199656 470.41778104 332.52359069 470.42109397 335.88525152 470.42173266 C337.98775019 470.42244451 340.09024242 470.42458139 342.19273949 470.42722988 C349.53407641 470.43647524 356.8753952 470.44056577 364.21673775 470.43977833 C371.04965564 470.4391777 377.88249456 470.44972862 384.71539247 470.46552199 C390.59071706 470.478616 396.4660159 470.48396145 402.34135497 470.48332292 C405.84647884 470.48306848 409.35153248 470.48588947 412.85664177 470.49650097 C416.76788329 470.5080193 420.67901721 470.50342373 424.5902729 470.49739552 C426.32205536 470.50582478 426.32205536 470.50582478 428.08882332 470.51442432 C438.29956792 470.56313729 438.29956792 470.56313729 446.90130806 465.62947559 C449.60087717 461.21199887 449.61175387 459.35704887 448.96380806 454.25447559 C447.6621539 451.00034019 446.51264048 449.63633836 443.64630318 447.64201832 C438.17569188 445.58072383 432.9686711 445.83724792 427.16888618 445.866292 C425.8804229 445.86103504 424.59195961 445.85577808 423.26445198 445.85036182 C419.74170281 445.83672202 416.21921815 445.84197291 412.69646454 445.85149908 C409.00371163 445.85911306 405.31098084 445.85204525 401.61822701 445.84734058 C395.41778703 445.84188808 389.21745438 445.84906133 383.01703072 445.86336231 C375.85626006 445.87968792 368.69574569 445.87439905 361.53498125 445.8578831 C355.37853193 445.84425378 349.2221596 445.84235561 343.06570005 445.8501991 C339.39237551 445.8548677 335.7191713 445.85552296 332.04585457 445.84558964 C327.94999284 445.83528665 323.8545705 445.84958088 319.75872993 445.866292 C318.54607964 445.86021931 317.33342934 445.85414661 316.08403206 445.8478899 C306.51168181 445.90838675 306.51168181 445.90838675 299.08880806 451.50447559 Z " fill="gray" transform="translate(19.036191940307617,-0.25447559356689453)"/>
<path d="M0 0 C4.89942661 3.0173298 8.66006752 7.93575182 10.921875 13.18359375 C11.24072266 15.47363281 11.24072266 15.47363281 11.3359375 17.94921875 C11.37460938 18.83867187 11.41328125 19.728125 11.453125 20.64453125 C11.4840625 21.56492188 11.515 22.4853125 11.546875 23.43359375 C11.58554688 24.36945313 11.62421875 25.3053125 11.6640625 26.26953125 C11.75812344 28.57402429 11.84376899 30.87851388 11.921875 33.18359375 C12.93765625 33.63347656 13.9534375 34.08335937 15 34.546875 C31.84080113 42.29364352 43.58220115 53.15925553 50.796875 70.68359375 C54.52101611 81.16636133 57.47301891 93.70502054 52.88671875 104.3359375 C49.88831016 110.07782924 46.22250831 113.15129465 40.31640625 115.4921875 C34.38156803 117.20583573 28.53299257 116.75276313 22.84375 114.36328125 C17.52269828 111.09710723 13.86023259 106.0512916 11.921875 100.18359375 C11.56367827 98.2121851 11.25270439 96.23173125 10.984375 94.24609375 C9.75388669 86.63011687 7.64367308 82.39502302 1.73828125 77.48046875 C-3.93421884 73.43042567 -9.25824709 73.48322118 -16.078125 74.18359375 C-22.01641373 75.89413191 -25.65178468 79.14485799 -29.078125 84.18359375 C-31.69310694 89.78712647 -32.01371813 95.59517957 -30.4609375 101.55078125 C-28.18961157 107.5205494 -24.86591346 111.40355766 -19.078125 114.18359375 C-14.03884819 115.5639174 -8.90715659 115.99621915 -3.72265625 116.52734375 C14.64029981 118.68525045 28.88869699 126.51078751 40.95703125 140.65234375 C52.21939945 155.16131908 56.59950814 172.4669308 54.52734375 190.64453125 C51.70631216 208.00752568 42.91618601 223.14591881 29.046875 234.05859375 C23.65537528 237.91857491 18.08601149 240.76890249 11.921875 243.18359375 C11.89609375 244.46234375 11.8703125 245.74109375 11.84375 247.05859375 C11.78743025 248.7669594 11.73008382 250.47529142 11.671875 252.18359375 C11.65769531 253.02277344 11.64351563 253.86195313 11.62890625 254.7265625 C11.33954552 262.19206921 9.42978444 267.55903735 4.234375 272.99609375 C-1.95617611 277.08419354 -7.61323587 278.92476662 -15.01953125 277.6796875 C-21.79664577 276.04649292 -26.32763742 271.94465199 -30.078125 266.18359375 C-32.09776145 260.76489594 -32.32982886 255.933148 -32.203125 250.24609375 C-32.19410156 249.46685547 -32.18507812 248.68761719 -32.17578125 247.88476562 C-32.15246191 245.98423928 -32.11660086 244.08387367 -32.078125 242.18359375 C-32.79871094 242.06757813 -33.51929688 241.9515625 -34.26171875 241.83203125 C-47.13377098 238.86842422 -58.65598375 227.46430468 -65.62109375 216.703125 C-72.85771762 204.18939204 -76.6555276 190.7207927 -75.078125 176.18359375 C-73.4144059 169.97435639 -69.39941386 165.65736652 -64.078125 162.18359375 C-58.27230238 159.41349538 -51.99723738 159.06288867 -45.796875 160.8359375 C-39.79218846 163.52649897 -35.5915609 167.92970657 -32.828125 173.87109375 C-32.078125 177.18359375 -32.078125 177.18359375 -31.69921875 179.9453125 C-30.77700463 186.56697606 -29.91651023 192.27722184 -25.078125 197.18359375 C-19.63615678 201.13699517 -14.19349492 202.99865497 -7.4609375 202.59765625 C-0.91078385 201.45943283 3.68247793 198.23347909 7.73046875 193.02734375 C11.05874154 187.8767052 11.36680309 182.66345381 10.58203125 176.74609375 C9.20978019 171.41948607 6.43420913 166.92920786 1.88671875 163.76953125 C-3.37938753 161.03312462 -8.26637356 160.13031274 -14.16992188 159.63964844 C-33.01116322 157.98456854 -48.9922855 150.10643378 -61.30859375 135.546875 C-72.67374852 120.59945756 -76.8165453 103.74451047 -75.078125 85.18359375 C-72.93913597 70.15719582 -65.75250285 57.72734111 -55.078125 47.18359375 C-54.46453125 46.54808594 -53.8509375 45.91257813 -53.21875 45.2578125 C-49.57149711 41.74304529 -46.3268021 39.84759819 -41.57617188 38.02270508 C-38.25604337 36.69054958 -35.90042702 35.46813282 -33.078125 33.18359375 C-31.91930509 28.98064308 -31.85437939 25.39745369 -31.9921875 21.078125 C-32.12604982 15.01172809 -30.46582695 10.62594918 -27.515625 5.43359375 C-19.58695232 -1.88518103 -10.03876119 -4.19620218 0 0 Z " fill="gray" transform="translate(158.078125,174.81640625)"/>
</svg>
